<?xml version="1.0" encoding="UTF-8" standalone="no"?>
<!DOCTYPE svg PUBLIC "-//W3C//DTD SVG 1.1//EN"
 "http://www.w3.org/Graphics/SVG/1.1/DTD/svg11.dtd">
<!-- Generated by graphviz version 2.43.0 (0)
 -->
<!-- Title: %3 Pages: 1 -->
<svg width="3304pt" height="836pt"
 viewBox="0.00 0.00 3304.12 836.00" xmlns="http://www.w3.org/2000/svg" xmlns:xlink="http://www.w3.org/1999/xlink">
<g id="graph0" class="graph" transform="scale(1 1) rotate(0) translate(4 832)">
<title>%3</title>
<polygon fill="white" stroke="transparent" points="-4,4 -4,-832 3300.12,-832 3300.12,4 -4,4"/>
<!-- [root] module.ec2.aws_instance.web (expand) -->
<g id="node1" class="node">
<title>[root] module.ec2.aws_instance.web (expand)</title>
<polygon fill="none" stroke="black" points="2086.88,-612 1855.88,-612 1855.88,-576 2086.88,-576 2086.88,-612"/>
<text text-anchor="middle" x="1971.38" y="-590.3" font-family="Times,serif" font-size="14.00">module.ec2.aws_instance.web</text>
</g>
<!-- [root] module.ec2.var.ami (expand) -->
<g id="node14" class="node">
<title>[root] module.ec2.var.ami (expand)</title>
<ellipse fill="none" stroke="black" cx="1555.38" cy="-522" rx="172.77" ry="18"/>
<text text-anchor="middle" x="1555.38" y="-518.3" font-family="Times,serif" font-size="14.00">[root] module.ec2.var.ami (expand)</text>
</g>
<!-- [root] module.ec2.aws_instance.web (expand)&#45;&gt;[root] module.ec2.var.ami (expand) -->
<g id="edge2" class="edge">
<title>[root] module.ec2.aws_instance.web (expand)&#45;&gt;[root] module.ec2.var.ami (expand)</title>
<path fill="none" stroke="black" d="M1870.15,-575.97C1803.81,-564.8 1717.59,-550.29 1652.16,-539.29"/>
<polygon fill="black" stroke="black" points="1652.7,-535.83 1642.26,-537.62 1651.54,-542.73 1652.7,-535.83"/>
</g>
<!-- [root] module.ec2.var.instance_name (expand) -->
<g id="node15" class="node">
<title>[root] module.ec2.var.instance_name (expand)</title>
<ellipse fill="none" stroke="black" cx="1971.38" cy="-522" rx="224.76" ry="18"/>
<text text-anchor="middle" x="1971.38" y="-518.3" font-family="Times,serif" font-size="14.00">[root] module.ec2.var.instance_name (expand)</text>
</g>
<!-- [root] module.ec2.aws_instance.web (expand)&#45;&gt;[root] module.ec2.var.instance_name (expand) -->
<g id="edge3" class="edge">
<title>[root] module.ec2.aws_instance.web (expand)&#45;&gt;[root] module.ec2.var.instance_name (expand)</title>
<path fill="none" stroke="black" d="M1971.38,-575.7C1971.38,-567.98 1971.38,-558.71 1971.38,-550.11"/>
<polygon fill="black" stroke="black" points="1974.88,-550.1 1971.38,-540.1 1967.88,-550.1 1974.88,-550.1"/>
</g>
<!-- [root] module.ec2.var.instance_type (expand) -->
<g id="node16" class="node">
<title>[root] module.ec2.var.instance_type (expand)</title>
<ellipse fill="none" stroke="black" cx="2434.38" cy="-522" rx="219.86" ry="18"/>
<text text-anchor="middle" x="2434.38" y="-518.3" font-family="Times,serif" font-size="14.00">[root] module.ec2.var.instance_type (expand)</text>
</g>
<!-- [root] module.ec2.aws_instance.web (expand)&#45;&gt;[root] module.ec2.var.instance_type (expand) -->
<g id="edge4" class="edge">
<title>[root] module.ec2.aws_instance.web (expand)&#45;&gt;[root] module.ec2.var.instance_type (expand)</title>
<path fill="none" stroke="black" d="M2084.05,-575.97C2157.17,-564.91 2251.98,-550.58 2324.53,-539.61"/>
<polygon fill="black" stroke="black" points="2325.25,-543.04 2334.61,-538.08 2324.2,-536.12 2325.25,-543.04"/>
</g>
<!-- [root] module.ec2.var.security_group_id (expand) -->
<g id="node17" class="node">
<title>[root] module.ec2.var.security_group_id (expand)</title>
<ellipse fill="none" stroke="black" cx="2910.38" cy="-522" rx="238.56" ry="18"/>
<text text-anchor="middle" x="2910.38" y="-518.3" font-family="Times,serif" font-size="14.00">[root] module.ec2.var.security_group_id (expand)</text>
</g>
<!-- [root] module.ec2.aws_instance.web (expand)&#45;&gt;[root] module.ec2.var.security_group_id (expand) -->
<g id="edge5" class="edge">
<title>[root] module.ec2.aws_instance.web (expand)&#45;&gt;[root] module.ec2.var.security_group_id (expand)</title>
<path fill="none" stroke="black" d="M2086.99,-584.38C2249.77,-572.25 2547.74,-550.03 2737.08,-535.92"/>
<polygon fill="black" stroke="black" points="2737.42,-539.4 2747.14,-535.17 2736.9,-532.42 2737.42,-539.4"/>
</g>
<!-- [root] module.ec2.var.subnet_id (expand) -->
<g id="node18" class="node">
<title>[root] module.ec2.var.subnet_id (expand)</title>
<ellipse fill="none" stroke="black" cx="1163.38" cy="-522" rx="200.66" ry="18"/>
<text text-anchor="middle" x="1163.38" y="-518.3" font-family="Times,serif" font-size="14.00">[root] module.ec2.var.subnet_id (expand)</text>
</g>
<!-- [root] module.ec2.aws_instance.web (expand)&#45;&gt;[root] module.ec2.var.subnet_id (expand) -->
<g id="edge6" class="edge">
<title>[root] module.ec2.aws_instance.web (expand)&#45;&gt;[root] module.ec2.var.subnet_id (expand)</title>
<path fill="none" stroke="black" d="M1855.61,-582.97C1712.68,-570.59 1469.31,-549.5 1312.51,-535.92"/>
<polygon fill="black" stroke="black" points="1312.57,-532.41 1302.31,-535.04 1311.97,-539.39 1312.57,-532.41"/>
</g>
<!-- [root] module.security_group.aws_security_group.instance_sg (expand) -->
<g id="node2" class="node">
<title>[root] module.security_group.aws_security_group.instance_sg (expand)</title>
<polygon fill="none" stroke="black" points="2157.88,-396 1744.88,-396 1744.88,-360 2157.88,-360 2157.88,-396"/>
<text text-anchor="middle" x="1951.38" y="-374.3" font-family="Times,serif" font-size="14.00">module.security_group.aws_security_group.instance_sg</text>
</g>
<!-- [root] module.security_group.var.name (expand) -->
<g id="node23" class="node">
<title>[root] module.security_group.var.name (expand)</title>
<ellipse fill="none" stroke="black" cx="1951.38" cy="-306" rx="234.76" ry="18"/>
<text text-anchor="middle" x="1951.38" y="-302.3" font-family="Times,serif" font-size="14.00">[root] module.security_group.var.name (expand)</text>
</g>
<!-- [root] module.security_group.aws_security_group.instance_sg (expand)&#45;&gt;[root] module.security_group.var.name (expand) -->
<g id="edge18" class="edge">
<title>[root] module.security_group.aws_security_group.instance_sg (expand)&#45;&gt;[root] module.security_group.var.name (expand)</title>
<path fill="none" stroke="black" d="M1951.38,-359.7C1951.38,-351.98 1951.38,-342.71 1951.38,-334.11"/>
<polygon fill="black" stroke="black" points="1954.88,-334.1 1951.38,-324.1 1947.88,-334.1 1954.88,-334.1"/>
</g>
<!-- [root] module.security_group.var.vpc_id (expand) -->
<g id="node24" class="node">
<title>[root] module.security_group.var.vpc_id (expand)</title>
<ellipse fill="none" stroke="black" cx="1460.38" cy="-306" rx="238.56" ry="18"/>
<text text-anchor="middle" x="1460.38" y="-302.3" font-family="Times,serif" font-size="14.00">[root] module.security_group.var.vpc_id (expand)</text>
</g>
<!-- [root] module.security_group.aws_security_group.instance_sg (expand)&#45;&gt;[root] module.security_group.var.vpc_id (expand) -->
<g id="edge19" class="edge">
<title>[root] module.security_group.aws_security_group.instance_sg (expand)&#45;&gt;[root] module.security_group.var.vpc_id (expand)</title>
<path fill="none" stroke="black" d="M1831.9,-359.97C1754.34,-348.91 1653.75,-334.57 1576.81,-323.6"/>
<polygon fill="black" stroke="black" points="1576.99,-320.09 1566.59,-322.14 1576,-327.02 1576.99,-320.09"/>
</g>
<!-- [root] module.vpc.aws_subnet.main (expand) -->
<g id="node3" class="node">
<title>[root] module.vpc.aws_subnet.main (expand)</title>
<polygon fill="none" stroke="black" points="1280.38,-252 1054.38,-252 1054.38,-216 1280.38,-216 1280.38,-252"/>
<text text-anchor="middle" x="1167.38" y="-230.3" font-family="Times,serif" font-size="14.00">module.vpc.aws_subnet.main</text>
</g>
<!-- [root] module.vpc.aws_vpc.main (expand) -->
<g id="node4" class="node">
<title>[root] module.vpc.aws_vpc.main (expand)</title>
<polygon fill="none" stroke="black" points="921.38,-180 719.38,-180 719.38,-144 921.38,-144 921.38,-180"/>
<text text-anchor="middle" x="820.38" y="-158.3" font-family="Times,serif" font-size="14.00">module.vpc.aws_vpc.main</text>
</g>
<!-- [root] module.vpc.aws_subnet.main (expand)&#45;&gt;[root] module.vpc.aws_vpc.main (expand) -->
<g id="edge26" class="edge">
<title>[root] module.vpc.aws_subnet.main (expand)&#45;&gt;[root] module.vpc.aws_vpc.main (expand)</title>
<path fill="none" stroke="black" d="M1082.94,-215.97C1032.15,-205.72 967.39,-192.66 914.89,-182.07"/>
<polygon fill="black" stroke="black" points="915.4,-178.6 904.9,-180.05 914.01,-185.46 915.4,-178.6"/>
</g>
<!-- [root] module.vpc.var.availability_zone (expand) -->
<g id="node28" class="node">
<title>[root] module.vpc.var.availability_zone (expand)</title>
<ellipse fill="none" stroke="black" cx="1172.38" cy="-162" rx="233.16" ry="18"/>
<text text-anchor="middle" x="1172.38" y="-158.3" font-family="Times,serif" font-size="14.00">[root] module.vpc.var.availability_zone (expand)</text>
</g>
<!-- [root] module.vpc.aws_subnet.main (expand)&#45;&gt;[root] module.vpc.var.availability_zone (expand) -->
<g id="edge27" class="edge">
<title>[root] module.vpc.aws_subnet.main (expand)&#45;&gt;[root] module.vpc.var.availability_zone (expand)</title>
<path fill="none" stroke="black" d="M1168.62,-215.7C1169.17,-207.98 1169.83,-198.71 1170.45,-190.11"/>
<polygon fill="black" stroke="black" points="1173.94,-190.33 1171.16,-180.1 1166.96,-189.83 1173.94,-190.33"/>
</g>
<!-- [root] module.vpc.var.subnet_cidr_block (expand) -->
<g id="node29" class="node">
<title>[root] module.vpc.var.subnet_cidr_block (expand)</title>
<ellipse fill="none" stroke="black" cx="1663.38" cy="-162" rx="239.36" ry="18"/>
<text text-anchor="middle" x="1663.38" y="-158.3" font-family="Times,serif" font-size="14.00">[root] module.vpc.var.subnet_cidr_block (expand)</text>
</g>
<!-- [root] module.vpc.aws_subnet.main (expand)&#45;&gt;[root] module.vpc.var.subnet_cidr_block (expand) -->
<g id="edge28" class="edge">
<title>[root] module.vpc.aws_subnet.main (expand)&#45;&gt;[root] module.vpc.var.subnet_cidr_block (expand)</title>
<path fill="none" stroke="black" d="M1280.55,-217.03C1359.93,-205.83 1465.79,-190.89 1546.06,-179.56"/>
<polygon fill="black" stroke="black" points="1546.81,-182.99 1556.22,-178.12 1545.83,-176.06 1546.81,-182.99"/>
</g>
<!-- [root] provider[&quot;registry.terraform.io/hashicorp/aws&quot;] -->
<g id="node5" class="node">
<title>[root] provider[&quot;registry.terraform.io/hashicorp/aws&quot;]</title>
<polygon fill="none" stroke="black" points="325.38,-108 0.12,-90 325.38,-72 650.65,-90 325.38,-108"/>
<text text-anchor="middle" x="325.38" y="-86.3" font-family="Times,serif" font-size="14.00">provider[&quot;registry.terraform.io/hashicorp/aws&quot;]</text>
</g>
<!-- [root] module.vpc.aws_vpc.main (expand)&#45;&gt;[root] provider[&quot;registry.terraform.io/hashicorp/aws&quot;] -->
<g id="edge30" class="edge">
<title>[root] module.vpc.aws_vpc.main (expand)&#45;&gt;[root] provider[&quot;registry.terraform.io/hashicorp/aws&quot;]</title>
<path fill="none" stroke="black" d="M719.32,-146.71C632.28,-134.4 507.51,-116.76 421.84,-104.64"/>
<polygon fill="black" stroke="black" points="422.24,-101.16 411.85,-103.23 421.26,-108.09 422.24,-101.16"/>
</g>
<!-- [root] module.vpc.var.cidr_block (expand) -->
<g id="node30" class="node">
<title>[root] module.vpc.var.cidr_block (expand)</title>
<ellipse fill="none" stroke="black" cx="871.38" cy="-90" rx="202.56" ry="18"/>
<text text-anchor="middle" x="871.38" y="-86.3" font-family="Times,serif" font-size="14.00">[root] module.vpc.var.cidr_block (expand)</text>
</g>
<!-- [root] module.vpc.aws_vpc.main (expand)&#45;&gt;[root] module.vpc.var.cidr_block (expand) -->
<g id="edge29" class="edge">
<title>[root] module.vpc.aws_vpc.main (expand)&#45;&gt;[root] module.vpc.var.cidr_block (expand)</title>
<path fill="none" stroke="black" d="M832.99,-143.7C838.98,-135.47 846.26,-125.48 852.86,-116.42"/>
<polygon fill="black" stroke="black" points="855.86,-118.25 858.92,-108.1 850.2,-114.13 855.86,-118.25"/>
</g>
<!-- [root] var.region -->
<g id="node9" class="node">
<title>[root] var.region</title>
<polygon fill="none" stroke="black" points="363.88,-36 280.88,-36 280.88,0 369.88,0 369.88,-30 363.88,-36"/>
<polyline fill="none" stroke="black" points="363.88,-36 363.88,-30 "/>
<polyline fill="none" stroke="black" points="369.88,-30 363.88,-30 "/>
<text text-anchor="middle" x="325.38" y="-14.3" font-family="Times,serif" font-size="14.00">var.region</text>
</g>
<!-- [root] provider[&quot;registry.terraform.io/hashicorp/aws&quot;]&#45;&gt;[root] var.region -->
<g id="edge43" class="edge">
<title>[root] provider[&quot;registry.terraform.io/hashicorp/aws&quot;]&#45;&gt;[root] var.region</title>
<path fill="none" stroke="black" d="M325.38,-71.7C325.38,-63.98 325.38,-54.71 325.38,-46.11"/>
<polygon fill="black" stroke="black" points="328.88,-46.1 325.38,-36.1 321.88,-46.1 328.88,-46.1"/>
</g>
<!-- [root] var.ami -->
<g id="node6" class="node">
<title>[root] var.ami</title>
<polygon fill="none" stroke="black" points="1583.88,-468 1520.88,-468 1520.88,-432 1589.88,-432 1589.88,-462 1583.88,-468"/>
<polyline fill="none" stroke="black" points="1583.88,-468 1583.88,-462 "/>
<polyline fill="none" stroke="black" points="1589.88,-462 1583.88,-462 "/>
<text text-anchor="middle" x="1555.38" y="-446.3" font-family="Times,serif" font-size="14.00">var.ami</text>
</g>
<!-- [root] var.availability_zone -->
<g id="node7" class="node">
<title>[root] var.availability_zone</title>
<polygon fill="none" stroke="black" points="1246.88,-108 1091.88,-108 1091.88,-72 1252.88,-72 1252.88,-102 1246.88,-108"/>
<polyline fill="none" stroke="black" points="1246.88,-108 1246.88,-102 "/>
<polyline fill="none" stroke="black" points="1252.88,-102 1246.88,-102 "/>
<text text-anchor="middle" x="1172.38" y="-86.3" font-family="Times,serif" font-size="14.00">var.availability_zone</text>
</g>
<!-- [root] var.instance_type -->
<g id="node8" class="node">
<title>[root] var.instance_type</title>
<polygon fill="none" stroke="black" points="2498.88,-468 2363.88,-468 2363.88,-432 2504.88,-432 2504.88,-462 2498.88,-468"/>
<polyline fill="none" stroke="black" points="2498.88,-468 2498.88,-462 "/>
<polyline fill="none" stroke="black" points="2504.88,-462 2498.88,-462 "/>
<text text-anchor="middle" x="2434.38" y="-446.3" font-family="Times,serif" font-size="14.00">var.instance_type</text>
</g>
<!-- [root] var.subnet_cidr_block -->
<g id="node10" class="node">
<title>[root] var.subnet_cidr_block</title>
<polygon fill="none" stroke="black" points="1629.38,-108 1465.38,-108 1465.38,-72 1635.38,-72 1635.38,-102 1629.38,-108"/>
<polyline fill="none" stroke="black" points="1629.38,-108 1629.38,-102 "/>
<polyline fill="none" stroke="black" points="1635.38,-102 1629.38,-102 "/>
<text text-anchor="middle" x="1550.38" y="-86.3" font-family="Times,serif" font-size="14.00">var.subnet_cidr_block</text>
</g>
<!-- [root] var.vpc_cidr_block -->
<g id="node11" class="node">
<title>[root] var.vpc_cidr_block</title>
<polygon fill="none" stroke="black" points="938.38,-36 798.38,-36 798.38,0 944.38,0 944.38,-30 938.38,-36"/>
<polyline fill="none" stroke="black" points="938.38,-36 938.38,-30 "/>
<polyline fill="none" stroke="black" points="944.38,-30 938.38,-30 "/>
<text text-anchor="middle" x="871.38" y="-14.3" font-family="Times,serif" font-size="14.00">var.vpc_cidr_block</text>
</g>
<!-- [root] module.ec2 (close) -->
<g id="node12" class="node">
<title>[root] module.ec2 (close)</title>
<ellipse fill="none" stroke="black" cx="1836.38" cy="-738" rx="126.18" ry="18"/>
<text text-anchor="middle" x="1836.38" y="-734.3" font-family="Times,serif" font-size="14.00">[root] module.ec2 (close)</text>
</g>
<!-- [root] module.ec2.output.instance_id (expand) -->
<g id="node13" class="node">
<title>[root] module.ec2.output.instance_id (expand)</title>
<ellipse fill="none" stroke="black" cx="1523.38" cy="-666" rx="224.76" ry="18"/>
<text text-anchor="middle" x="1523.38" y="-662.3" font-family="Times,serif" font-size="14.00">[root] module.ec2.output.instance_id (expand)</text>
</g>
<!-- [root] module.ec2 (close)&#45;&gt;[root] module.ec2.output.instance_id (expand) -->
<g id="edge1" class="edge">
<title>[root] module.ec2 (close)&#45;&gt;[root] module.ec2.output.instance_id (expand)</title>
<path fill="none" stroke="black" d="M1771.53,-722.5C1723.25,-711.7 1657,-696.88 1605.1,-685.28"/>
<polygon fill="black" stroke="black" points="1605.78,-681.84 1595.25,-683.07 1604.25,-688.67 1605.78,-681.84"/>
</g>
<!-- [root] module.ec2.output.instance_id (expand)&#45;&gt;[root] module.ec2.aws_instance.web (expand) -->
<g id="edge7" class="edge">
<title>[root] module.ec2.output.instance_id (expand)&#45;&gt;[root] module.ec2.aws_instance.web (expand)</title>
<path fill="none" stroke="black" d="M1620.87,-649.77C1688.84,-639.15 1779.94,-624.91 1852.23,-613.62"/>
<polygon fill="black" stroke="black" points="1852.96,-617.05 1862.3,-612.04 1851.88,-610.13 1852.96,-617.05"/>
</g>
<!-- [root] module.ec2.var.ami (expand)&#45;&gt;[root] var.ami -->
<g id="edge9" class="edge">
<title>[root] module.ec2.var.ami (expand)&#45;&gt;[root] var.ami</title>
<path fill="none" stroke="black" d="M1555.38,-503.7C1555.38,-495.98 1555.38,-486.71 1555.38,-478.11"/>
<polygon fill="black" stroke="black" points="1558.88,-478.1 1555.38,-468.1 1551.88,-478.1 1558.88,-478.1"/>
</g>
<!-- [root] module.ec2 (expand) -->
<g id="node19" class="node">
<title>[root] module.ec2 (expand)</title>
<ellipse fill="none" stroke="black" cx="1971.38" cy="-450" rx="135.68" ry="18"/>
<text text-anchor="middle" x="1971.38" y="-446.3" font-family="Times,serif" font-size="14.00">[root] module.ec2 (expand)</text>
</g>
<!-- [root] module.ec2.var.ami (expand)&#45;&gt;[root] module.ec2 (expand) -->
<g id="edge8" class="edge">
<title>[root] module.ec2.var.ami (expand)&#45;&gt;[root] module.ec2 (expand)</title>
<path fill="none" stroke="black" d="M1642.08,-506.41C1711.87,-494.67 1809.67,-478.21 1880.54,-466.29"/>
<polygon fill="black" stroke="black" points="1881.51,-469.67 1890.79,-464.56 1880.35,-462.77 1881.51,-469.67"/>
</g>
<!-- [root] module.ec2.var.instance_name (expand)&#45;&gt;[root] module.ec2 (expand) -->
<g id="edge10" class="edge">
<title>[root] module.ec2.var.instance_name (expand)&#45;&gt;[root] module.ec2 (expand)</title>
<path fill="none" stroke="black" d="M1971.38,-503.7C1971.38,-495.98 1971.38,-486.71 1971.38,-478.11"/>
<polygon fill="black" stroke="black" points="1974.88,-478.1 1971.38,-468.1 1967.88,-478.1 1974.88,-478.1"/>
</g>
<!-- [root] module.ec2.var.instance_type (expand)&#45;&gt;[root] var.instance_type -->
<g id="edge12" class="edge">
<title>[root] module.ec2.var.instance_type (expand)&#45;&gt;[root] var.instance_type</title>
<path fill="none" stroke="black" d="M2434.38,-503.7C2434.38,-495.98 2434.38,-486.71 2434.38,-478.11"/>
<polygon fill="black" stroke="black" points="2437.88,-478.1 2434.38,-468.1 2430.88,-478.1 2437.88,-478.1"/>
</g>
<!-- [root] module.ec2.var.instance_type (expand)&#45;&gt;[root] module.ec2 (expand) -->
<g id="edge11" class="edge">
<title>[root] module.ec2.var.instance_type (expand)&#45;&gt;[root] module.ec2 (expand)</title>
<path fill="none" stroke="black" d="M2334.77,-505.94C2255.67,-493.98 2145.73,-477.36 2067.54,-465.54"/>
<polygon fill="black" stroke="black" points="2067.62,-462.01 2057.21,-463.98 2066.57,-468.93 2067.62,-462.01"/>
</g>
<!-- [root] module.ec2.var.security_group_id (expand)&#45;&gt;[root] module.ec2 (expand) -->
<g id="edge13" class="edge">
<title>[root] module.ec2.var.security_group_id (expand)&#45;&gt;[root] module.ec2 (expand)</title>
<path fill="none" stroke="black" d="M2747.36,-508.85C2562.33,-495.05 2264.54,-472.85 2096.76,-460.35"/>
<polygon fill="black" stroke="black" points="2096.88,-456.85 2086.65,-459.59 2096.36,-463.83 2096.88,-456.85"/>
</g>
<!-- [root] module.security_group.output.sg_id (expand) -->
<g id="node20" class="node">
<title>[root] module.security_group.output.sg_id (expand)</title>
<ellipse fill="none" stroke="black" cx="3043.38" cy="-450" rx="249.66" ry="18"/>
<text text-anchor="middle" x="3043.38" y="-446.3" font-family="Times,serif" font-size="14.00">[root] module.security_group.output.sg_id (expand)</text>
</g>
<!-- [root] module.ec2.var.security_group_id (expand)&#45;&gt;[root] module.security_group.output.sg_id (expand) -->
<g id="edge14" class="edge">
<title>[root] module.ec2.var.security_group_id (expand)&#45;&gt;[root] module.security_group.output.sg_id (expand)</title>
<path fill="none" stroke="black" d="M2942.58,-504.05C2960.42,-494.67 2982.79,-482.89 3001.92,-472.82"/>
<polygon fill="black" stroke="black" points="3003.8,-475.79 3011.02,-468.03 3000.54,-469.59 3003.8,-475.79"/>
</g>
<!-- [root] module.ec2.var.subnet_id (expand)&#45;&gt;[root] module.ec2 (expand) -->
<g id="edge15" class="edge">
<title>[root] module.ec2.var.subnet_id (expand)&#45;&gt;[root] module.ec2 (expand)</title>
<path fill="none" stroke="black" d="M1302.28,-508.97C1456.83,-495.58 1704.06,-474.16 1850.79,-461.45"/>
<polygon fill="black" stroke="black" points="1851.52,-464.9 1861.18,-460.55 1850.91,-457.92 1851.52,-464.9"/>
</g>
<!-- [root] module.vpc.output.subnet_id (expand) -->
<g id="node21" class="node">
<title>[root] module.vpc.output.subnet_id (expand)</title>
<ellipse fill="none" stroke="black" cx="1163.38" cy="-450" rx="217.96" ry="18"/>
<text text-anchor="middle" x="1163.38" y="-446.3" font-family="Times,serif" font-size="14.00">[root] module.vpc.output.subnet_id (expand)</text>
</g>
<!-- [root] module.ec2.var.subnet_id (expand)&#45;&gt;[root] module.vpc.output.subnet_id (expand) -->
<g id="edge16" class="edge">
<title>[root] module.ec2.var.subnet_id (expand)&#45;&gt;[root] module.vpc.output.subnet_id (expand)</title>
<path fill="none" stroke="black" d="M1163.38,-503.7C1163.38,-495.98 1163.38,-486.71 1163.38,-478.11"/>
<polygon fill="black" stroke="black" points="1166.88,-478.1 1163.38,-468.1 1159.88,-478.1 1166.88,-478.1"/>
</g>
<!-- [root] module.security_group.output.sg_id (expand)&#45;&gt;[root] module.security_group.aws_security_group.instance_sg (expand) -->
<g id="edge20" class="edge">
<title>[root] module.security_group.output.sg_id (expand)&#45;&gt;[root] module.security_group.aws_security_group.instance_sg (expand)</title>
<path fill="none" stroke="black" d="M2863.67,-437.48C2673.15,-425.27 2372.2,-405.98 2168.53,-392.92"/>
<polygon fill="black" stroke="black" points="2168.51,-389.41 2158.3,-392.26 2168.06,-396.4 2168.51,-389.41"/>
</g>
<!-- [root] module.vpc.output.subnet_id (expand)&#45;&gt;[root] module.vpc.aws_subnet.main (expand) -->
<g id="edge31" class="edge">
<title>[root] module.vpc.output.subnet_id (expand)&#45;&gt;[root] module.vpc.aws_subnet.main (expand)</title>
<path fill="none" stroke="black" d="M1163.7,-431.85C1164.39,-394.83 1166.03,-307.18 1166.87,-262.39"/>
<polygon fill="black" stroke="black" points="1170.37,-262.3 1167.06,-252.23 1163.37,-262.17 1170.37,-262.3"/>
</g>
<!-- [root] module.security_group (close) -->
<g id="node22" class="node">
<title>[root] module.security_group (close)</title>
<ellipse fill="none" stroke="black" cx="3117.38" cy="-666" rx="178.97" ry="18"/>
<text text-anchor="middle" x="3117.38" y="-662.3" font-family="Times,serif" font-size="14.00">[root] module.security_group (close)</text>
</g>
<!-- [root] module.security_group (close)&#45;&gt;[root] module.security_group.output.sg_id (expand) -->
<g id="edge17" class="edge">
<title>[root] module.security_group (close)&#45;&gt;[root] module.security_group.output.sg_id (expand)</title>
<path fill="none" stroke="black" d="M3133.26,-647.74C3159.73,-616.8 3207,-550.76 3175.38,-504 3165.55,-489.46 3151.01,-478.91 3135.13,-471.26"/>
<polygon fill="black" stroke="black" points="3136.21,-467.91 3125.65,-467.07 3133.39,-474.31 3136.21,-467.91"/>
</g>
<!-- [root] module.security_group (expand) -->
<g id="node25" class="node">
<title>[root] module.security_group (expand)</title>
<ellipse fill="none" stroke="black" cx="1719.38" cy="-234" rx="189.27" ry="18"/>
<text text-anchor="middle" x="1719.38" y="-230.3" font-family="Times,serif" font-size="14.00">[root] module.security_group (expand)</text>
</g>
<!-- [root] module.security_group.var.name (expand)&#45;&gt;[root] module.security_group (expand) -->
<g id="edge21" class="edge">
<title>[root] module.security_group.var.name (expand)&#45;&gt;[root] module.security_group (expand)</title>
<path fill="none" stroke="black" d="M1896.4,-288.41C1862.47,-278.17 1818.81,-265 1783.34,-254.3"/>
<polygon fill="black" stroke="black" points="1784.15,-250.89 1773.57,-251.35 1782.13,-257.59 1784.15,-250.89"/>
</g>
<!-- [root] module.security_group.var.vpc_id (expand)&#45;&gt;[root] module.security_group (expand) -->
<g id="edge22" class="edge">
<title>[root] module.security_group.var.vpc_id (expand)&#45;&gt;[root] module.security_group (expand)</title>
<path fill="none" stroke="black" d="M1521.11,-288.59C1559.64,-278.17 1609.63,-264.66 1649.77,-253.81"/>
<polygon fill="black" stroke="black" points="1650.74,-257.18 1659.49,-251.19 1648.92,-250.42 1650.74,-257.18"/>
</g>
<!-- [root] module.vpc.output.vpc_id (expand) -->
<g id="node26" class="node">
<title>[root] module.vpc.output.vpc_id (expand)</title>
<ellipse fill="none" stroke="black" cx="829.38" cy="-234" rx="202.26" ry="18"/>
<text text-anchor="middle" x="829.38" y="-230.3" font-family="Times,serif" font-size="14.00">[root] module.vpc.output.vpc_id (expand)</text>
</g>
<!-- [root] module.security_group.var.vpc_id (expand)&#45;&gt;[root] module.vpc.output.vpc_id (expand) -->
<g id="edge23" class="edge">
<title>[root] module.security_group.var.vpc_id (expand)&#45;&gt;[root] module.vpc.output.vpc_id (expand)</title>
<path fill="none" stroke="black" d="M1332.31,-290.79C1224.11,-278.79 1069.77,-261.67 960.66,-249.56"/>
<polygon fill="black" stroke="black" points="960.9,-246.07 950.58,-248.45 960.13,-253.03 960.9,-246.07"/>
</g>
<!-- [root] module.vpc.output.vpc_id (expand)&#45;&gt;[root] module.vpc.aws_vpc.main (expand) -->
<g id="edge32" class="edge">
<title>[root] module.vpc.output.vpc_id (expand)&#45;&gt;[root] module.vpc.aws_vpc.main (expand)</title>
<path fill="none" stroke="black" d="M827.16,-215.7C826.17,-207.98 824.97,-198.71 823.87,-190.11"/>
<polygon fill="black" stroke="black" points="827.33,-189.58 822.58,-180.1 820.38,-190.47 827.33,-189.58"/>
</g>
<!-- [root] module.vpc (close) -->
<g id="node27" class="node">
<title>[root] module.vpc (close)</title>
<ellipse fill="none" stroke="black" cx="818.38" cy="-522" rx="126.18" ry="18"/>
<text text-anchor="middle" x="818.38" y="-518.3" font-family="Times,serif" font-size="14.00">[root] module.vpc (close)</text>
</g>
<!-- [root] module.vpc (close)&#45;&gt;[root] module.vpc.output.subnet_id (expand) -->
<g id="edge24" class="edge">
<title>[root] module.vpc (close)&#45;&gt;[root] module.vpc.output.subnet_id (expand)</title>
<path fill="none" stroke="black" d="M887.78,-506.92C941.82,-495.95 1017.17,-480.67 1075.43,-468.84"/>
<polygon fill="black" stroke="black" points="1076.26,-472.25 1085.36,-466.83 1074.87,-465.39 1076.26,-472.25"/>
</g>
<!-- [root] module.vpc (close)&#45;&gt;[root] module.vpc.output.vpc_id (expand) -->
<g id="edge25" class="edge">
<title>[root] module.vpc (close)&#45;&gt;[root] module.vpc.output.vpc_id (expand)</title>
<path fill="none" stroke="black" d="M819.04,-503.97C820.87,-456.29 826.07,-321.18 828.32,-262.63"/>
<polygon fill="black" stroke="black" points="831.83,-262.43 828.72,-252.31 824.83,-262.16 831.83,-262.43"/>
</g>
<!-- [root] module.vpc.var.availability_zone (expand)&#45;&gt;[root] var.availability_zone -->
<g id="edge34" class="edge">
<title>[root] module.vpc.var.availability_zone (expand)&#45;&gt;[root] var.availability_zone</title>
<path fill="none" stroke="black" d="M1172.38,-143.7C1172.38,-135.98 1172.38,-126.71 1172.38,-118.11"/>
<polygon fill="black" stroke="black" points="1175.88,-118.1 1172.38,-108.1 1168.88,-118.1 1175.88,-118.1"/>
</g>
<!-- [root] module.vpc (expand) -->
<g id="node31" class="node">
<title>[root] module.vpc (expand)</title>
<ellipse fill="none" stroke="black" cx="1281.38" cy="-18" rx="135.68" ry="18"/>
<text text-anchor="middle" x="1281.38" y="-14.3" font-family="Times,serif" font-size="14.00">[root] module.vpc (expand)</text>
</g>
<!-- [root] module.vpc.var.availability_zone (expand)&#45;&gt;[root] module.vpc (expand) -->
<g id="edge33" class="edge">
<title>[root] module.vpc.var.availability_zone (expand)&#45;&gt;[root] module.vpc (expand)</title>
<path fill="none" stroke="black" d="M1215.79,-144.11C1232.36,-135.61 1249.98,-123.72 1261.38,-108 1274.42,-90.02 1279.18,-65.03 1280.81,-46.1"/>
<polygon fill="black" stroke="black" points="1284.31,-46.23 1281.44,-36.03 1277.32,-45.79 1284.31,-46.23"/>
</g>
<!-- [root] module.vpc.var.subnet_cidr_block (expand)&#45;&gt;[root] var.subnet_cidr_block -->
<g id="edge38" class="edge">
<title>[root] module.vpc.var.subnet_cidr_block (expand)&#45;&gt;[root] var.subnet_cidr_block</title>
<path fill="none" stroke="black" d="M1636.03,-144.05C1621.15,-134.84 1602.55,-123.32 1586.5,-113.37"/>
<polygon fill="black" stroke="black" points="1588.22,-110.32 1577.88,-108.03 1584.53,-116.27 1588.22,-110.32"/>
</g>
<!-- [root] module.vpc.var.subnet_cidr_block (expand)&#45;&gt;[root] module.vpc (expand) -->
<g id="edge37" class="edge">
<title>[root] module.vpc.var.subnet_cidr_block (expand)&#45;&gt;[root] module.vpc (expand)</title>
<path fill="none" stroke="black" d="M1665.03,-143.83C1665.93,-123.58 1663.98,-90.36 1644.38,-72 1612.49,-42.13 1510.51,-29.05 1422.72,-23.35"/>
<polygon fill="black" stroke="black" points="1422.84,-19.85 1412.64,-22.72 1422.41,-26.84 1422.84,-19.85"/>
</g>
<!-- [root] module.vpc.var.cidr_block (expand)&#45;&gt;[root] var.vpc_cidr_block -->
<g id="edge36" class="edge">
<title>[root] module.vpc.var.cidr_block (expand)&#45;&gt;[root] var.vpc_cidr_block</title>
<path fill="none" stroke="black" d="M871.38,-71.7C871.38,-63.98 871.38,-54.71 871.38,-46.11"/>
<polygon fill="black" stroke="black" points="874.88,-46.1 871.38,-36.1 867.88,-46.1 874.88,-46.1"/>
</g>
<!-- [root] module.vpc.var.cidr_block (expand)&#45;&gt;[root] module.vpc (expand) -->
<g id="edge35" class="edge">
<title>[root] module.vpc.var.cidr_block (expand)&#45;&gt;[root] module.vpc (expand)</title>
<path fill="none" stroke="black" d="M960.35,-73.81C1028.81,-62.12 1123.02,-46.04 1191.67,-34.32"/>
<polygon fill="black" stroke="black" points="1192.34,-37.75 1201.61,-32.62 1191.16,-30.85 1192.34,-37.75"/>
</g>
<!-- [root] output.instance_id (expand) -->
<g id="node32" class="node">
<title>[root] output.instance_id (expand)</title>
<ellipse fill="none" stroke="black" cx="1523.38" cy="-738" rx="168.97" ry="18"/>
<text text-anchor="middle" x="1523.38" y="-734.3" font-family="Times,serif" font-size="14.00">[root] output.instance_id (expand)</text>
</g>
<!-- [root] output.instance_id (expand)&#45;&gt;[root] module.ec2.output.instance_id (expand) -->
<g id="edge39" class="edge">
<title>[root] output.instance_id (expand)&#45;&gt;[root] module.ec2.output.instance_id (expand)</title>
<path fill="none" stroke="black" d="M1523.38,-719.7C1523.38,-711.98 1523.38,-702.71 1523.38,-694.11"/>
<polygon fill="black" stroke="black" points="1526.88,-694.1 1523.38,-684.1 1519.88,-694.1 1526.88,-694.1"/>
</g>
<!-- [root] output.security_group_id (expand) -->
<g id="node33" class="node">
<title>[root] output.security_group_id (expand)</title>
<ellipse fill="none" stroke="black" cx="2814.38" cy="-594" rx="198.76" ry="18"/>
<text text-anchor="middle" x="2814.38" y="-590.3" font-family="Times,serif" font-size="14.00">[root] output.security_group_id (expand)</text>
</g>
<!-- [root] output.security_group_id (expand)&#45;&gt;[root] module.security_group.output.sg_id (expand) -->
<g id="edge40" class="edge">
<title>[root] output.security_group_id (expand)&#45;&gt;[root] module.security_group.output.sg_id (expand)</title>
<path fill="none" stroke="black" d="M2994.26,-586.26C3065.6,-579.45 3136.01,-566.09 3158.38,-540 3168.8,-527.86 3167.01,-517.47 3158.38,-504 3149.35,-489.89 3135.51,-479.49 3120.52,-471.83"/>
<polygon fill="black" stroke="black" points="3121.61,-468.48 3111.07,-467.41 3118.65,-474.82 3121.61,-468.48"/>
</g>
<!-- [root] output.vpc_id (expand) -->
<g id="node34" class="node">
<title>[root] output.vpc_id (expand)</title>
<ellipse fill="none" stroke="black" cx="658.38" cy="-378" rx="145.67" ry="18"/>
<text text-anchor="middle" x="658.38" y="-374.3" font-family="Times,serif" font-size="14.00">[root] output.vpc_id (expand)</text>
</g>
<!-- [root] output.vpc_id (expand)&#45;&gt;[root] module.vpc.output.vpc_id (expand) -->
<g id="edge41" class="edge">
<title>[root] output.vpc_id (expand)&#45;&gt;[root] module.vpc.output.vpc_id (expand)</title>
<path fill="none" stroke="black" d="M678.67,-360.15C709.06,-334.92 766.5,-287.22 801.02,-258.55"/>
<polygon fill="black" stroke="black" points="803.4,-261.13 808.85,-252.05 798.93,-255.74 803.4,-261.13"/>
</g>
<!-- [root] provider[&quot;registry.terraform.io/hashicorp/aws&quot;] (close) -->
<g id="node35" class="node">
<title>[root] provider[&quot;registry.terraform.io/hashicorp/aws&quot;] (close)</title>
<ellipse fill="none" stroke="black" cx="2058.38" cy="-666" rx="291.65" ry="18"/>
<text text-anchor="middle" x="2058.38" y="-662.3" font-family="Times,serif" font-size="14.00">[root] provider[&quot;registry.terraform.io/hashicorp/aws&quot;] (close)</text>
</g>
<!-- [root] provider[&quot;registry.terraform.io/hashicorp/aws&quot;] (close)&#45;&gt;[root] module.ec2.aws_instance.web (expand) -->
<g id="edge42" class="edge">
<title>[root] provider[&quot;registry.terraform.io/hashicorp/aws&quot;] (close)&#45;&gt;[root] module.ec2.aws_instance.web (expand)</title>
<path fill="none" stroke="black" d="M2036.88,-647.7C2025.92,-638.88 2012.44,-628.03 2000.56,-618.47"/>
<polygon fill="black" stroke="black" points="2002.63,-615.65 1992.64,-612.1 1998.24,-621.1 2002.63,-615.65"/>
</g>
<!-- [root] root -->
<g id="node36" class="node">
<title>[root] root</title>
<ellipse fill="none" stroke="black" cx="1836.38" cy="-810" rx="58.49" ry="18"/>
<text text-anchor="middle" x="1836.38" y="-806.3" font-family="Times,serif" font-size="14.00">[root] root</text>
</g>
<!-- [root] root&#45;&gt;[root] module.ec2 (close) -->
<g id="edge44" class="edge">
<title>[root] root&#45;&gt;[root] module.ec2 (close)</title>
<path fill="none" stroke="black" d="M1836.38,-791.7C1836.38,-783.98 1836.38,-774.71 1836.38,-766.11"/>
<polygon fill="black" stroke="black" points="1839.88,-766.1 1836.38,-756.1 1832.88,-766.1 1839.88,-766.1"/>
</g>
<!-- [root] root&#45;&gt;[root] module.security_group (close) -->
<g id="edge45" class="edge">
<title>[root] root&#45;&gt;[root] module.security_group (close)</title>
<path fill="none" stroke="black" d="M1894.91,-809.07C2039.3,-808.48 2423.82,-802.29 2740.38,-756 2851.51,-739.75 2978.09,-706.83 3052.66,-685.9"/>
<polygon fill="black" stroke="black" points="3053.71,-689.24 3062.39,-683.16 3051.81,-682.5 3053.71,-689.24"/>
</g>
<!-- [root] root&#45;&gt;[root] module.vpc (close) -->
<g id="edge46" class="edge">
<title>[root] root&#45;&gt;[root] module.vpc (close)</title>
<path fill="none" stroke="black" d="M1777.87,-808.47C1684.75,-806.36 1497.76,-796.85 1345.38,-756 1152.83,-704.38 940.71,-591.94 856.17,-544.64"/>
<polygon fill="black" stroke="black" points="857.64,-541.46 847.21,-539.61 854.21,-547.56 857.64,-541.46"/>
</g>
<!-- [root] root&#45;&gt;[root] output.instance_id (expand) -->
<g id="edge47" class="edge">
<title>[root] root&#45;&gt;[root] output.instance_id (expand)</title>
<path fill="none" stroke="black" d="M1790.53,-798.75C1741.26,-787.73 1662.01,-770 1602.6,-756.72"/>
<polygon fill="black" stroke="black" points="1603.02,-753.22 1592.5,-754.46 1601.49,-760.06 1603.02,-753.22"/>
</g>
<!-- [root] root&#45;&gt;[root] output.security_group_id (expand) -->
<g id="edge48" class="edge">
<title>[root] root&#45;&gt;[root] output.security_group_id (expand)</title>
<path fill="none" stroke="black" d="M1882.57,-798.89C2036.64,-765.18 2534.4,-656.26 2732.22,-612.98"/>
<polygon fill="black" stroke="black" points="2733.24,-616.34 2742.26,-610.78 2731.75,-609.5 2733.24,-616.34"/>
</g>
<!-- [root] root&#45;&gt;[root] output.vpc_id (expand) -->
<g id="edge49" class="edge">
<title>[root] root&#45;&gt;[root] output.vpc_id (expand)</title>
<path fill="none" stroke="black" d="M1778.16,-808.15C1541.27,-803.95 662.38,-780.69 662.38,-667 662.38,-667 662.38,-667 662.38,-521 662.38,-480.98 660.77,-434.64 659.6,-406.07"/>
<polygon fill="black" stroke="black" points="663.09,-405.89 659.17,-396.04 656.1,-406.18 663.09,-405.89"/>
</g>
<!-- [root] root&#45;&gt;[root] provider[&quot;registry.terraform.io/hashicorp/aws&quot;] (close) -->
<g id="edge50" class="edge">
<title>[root] root&#45;&gt;[root] provider[&quot;registry.terraform.io/hashicorp/aws&quot;] (close)</title>
<path fill="none" stroke="black" d="M1878.75,-797.45C1906.52,-788.7 1942.84,-774.92 1971.38,-756 1997.86,-738.45 2022.61,-711.71 2038.89,-692.12"/>
<polygon fill="black" stroke="black" points="2041.73,-694.17 2045.33,-684.21 2036.31,-689.75 2041.73,-694.17"/>
</g>
</g>
</svg>
